<?xml version="1.0" standalone="no"?>
<!DOCTYPE svg PUBLIC "-//W3C//DTD SVG 20010904//EN"
 "http://www.w3.org/TR/2001/REC-SVG-20010904/DTD/svg10.dtd">
<svg version="1.0" xmlns="http://www.w3.org/2000/svg"
 width="512.000000pt" height="512.000000pt" viewBox="0 0 512.000000 512.000000"
 preserveAspectRatio="xMidYMid meet">
<metadata>
Created by potrace 1.11, written by Peter Selinger 2001-2013
</metadata>
<g transform="translate(0.000000,512.000000) scale(0.100000,-0.100000)"
fill="#000000" stroke="none">
<path d="M3690 4386 c-827 -228 -1156 -318 -1350 -371 -96 -25 -296 -80 -445
-122 -148 -41 -277 -76 -285 -78 -8 -3 -31 -9 -50 -14 -19 -5 -102 -28 -185
-51 -82 -23 -157 -43 -165 -45 -83 -18 -604 -161 -656 -181 l-42 -15 3 -1332
c1 -938 5 -1342 13 -1365 39 -117 129 -200 247 -227 36 -8 538 -11 1810 -10
l1760 0 65 31 c69 33 109 67 145 124 53 85 51 40 53 1208 l1 1082 -1697 1
-1697 1 105 29 c295 83 571 160 700 194 8 2 49 14 90 25 97 27 192 53 310 84
52 13 138 36 190 51 52 14 160 43 240 65 80 21 215 59 300 83 85 25 259 72
385 106 768 207 902 245 924 258 31 20 28 42 -44 304 -31 112 -58 212 -60 222
-15 70 -37 97 -79 96 -17 0 -281 -69 -586 -153z"/>
</g>
</svg>
