<svg display="none" xmlns="http://www.w3.org/2000/svg">
<symbol id="ticket1" viewBox="0 0 64 64">
    <path d="M62.981,20.549l-3.557-3.571c-1.431-1.437-3.636-0.265-3.636-0.265l-0.006-0.004  c-2.298,0.957-5.044,0.506-6.91-1.367c-1.867-1.876-2.308-4.628-1.337-6.923c0.009-0.022,0.009-0.036,0.019-0.059  c0.83-2.196-0.35-3.637-0.698-4.001l-3.574-3.588c-1.561-1.567-3.256-0.142-3.671,0.257L1.035,39.45  c-2.143,2.132-0.376,3.835-0.376,3.835l4.139,4.155c0,0,1.021,1.104,3.003,0.304c0.063-0.025,0.111-0.036,0.166-0.053  c2.356-1.135,5.261-0.744,7.21,1.212c1.856,1.865,2.307,4.594,1.359,6.882h0.003c0,0-1.204,2.235,0.244,3.688l3.625,3.64  c0.258,0.254,2.163,1.965,4.541-0.401l38.329-38.173C63.856,23.866,64.758,22.333,62.981,20.549z M23.456,45.199l-0.329,0.326  c-0.369,0.368-0.747,0.132-0.939-0.039l-4.249-4.267l-1.07,1.067c-0.542,0.541-1.005-0.017-1.005-0.017l-0.142-0.143  c0,0-0.385-0.346,0.201-0.928l3.254-3.241c0,0,0.512-0.566,1-0.078l0.111,0.111c0.365,0.388,0.137,0.738-0.02,0.908l-1.104,1.102  l4.085,4.103C23.756,44.611,23.613,44.993,23.456,45.199z M27.073,41.596l-0.266,0.265c-0.414,0.413-0.956-0.063-1.088-0.189  l-4.487-4.507c0,0-0.619-0.637-0.111-1.141l0.189-0.188c0,0,0.538-0.501,1.278,0.243l4.405,4.422  C27.48,40.991,27.235,41.409,27.073,41.596z M32.547,35.873c-0.271,0.535-0.62,1.043-1.097,1.52  c-0.84,0.837-1.736,1.221-2.688,1.154c-0.953-0.064-1.904-0.574-2.854-1.527c-0.597-0.601-1.012-1.233-1.243-1.905  c-0.231-0.669-0.262-1.326-0.092-1.976s0.529-1.246,1.079-1.795c0.44-0.438,0.992-0.772,1.603-1.045  c0.203-0.033,0.577-0.036,0.755,0.379l0.069,0.162c0.304,0.71-0.546,0.947-0.546,0.947l0.001,0.003  c-0.035,0.017-0.074,0.031-0.11,0.047c-0.294,0.139-0.546,0.315-0.757,0.527c-0.461,0.457-0.645,0.987-0.553,1.585  c0.092,0.597,0.446,1.204,1.062,1.823c1.282,1.286,2.408,1.45,3.374,0.487c0.281-0.278,0.553-0.686,0.82-1.146  c0.003,0,0.02,0.006,0.02,0.006s0.352-0.607,0.683-0.276l0.205,0.207C32.625,35.371,32.604,35.681,32.547,35.873z M38.388,30.326  l-0.585,0.583c-0.364,0.362-0.936,0.226-0.936,0.226l-3.362-0.792l-0.146,0.886l1.388,1.394c0.498,0.499,0.387,0.884,0.23,1.104  l-0.303,0.298c-0.426,0.427-0.907,0.054-1.088-0.119l-4.517-4.535c0,0-0.636-0.632-0.177-1.087l0.282-0.281  c0.177-0.148,0.598-0.374,1.151,0.181l1.968,1.976L32.097,29l-0.34-3.06c0,0-0.053-0.457,0.294-0.803l0.458-0.457  c0,0,0.555-0.56,0.647,0.245c0,0,0.002,0,0.002,0.003l0.438,3.76l4.53,1.037C38.368,29.791,38.753,29.961,38.388,30.326z   M42.528,26.33l-2.213,2.205c-0.576,0.574-1.113,0.137-1.266-0.011l-4.468-4.484c0,0-0.555-0.744,0.029-1.327l2.164-2.154  c0,0,0.456-0.51,0.833-0.131l0.173,0.172c0,0,0.531,0.427-0.007,0.962l-1.179,1.173c-0.451,0.451-0.003,0.875-0.003,0.875  l0.348,0.346c0,0,0.471,0.493,1.007-0.042l0.948-0.945c0,0,0.471-0.485,0.833-0.123l0.141,0.142  c0.396,0.432,0.219,0.767,0.084,0.925l-0.912,0.909c-0.571,0.568-0.249,0.989-0.147,1.095l0.624,0.627  c0.188,0.147,0.495,0.276,0.822-0.05l1.164-1.16c0,0,0.478-0.516,0.791-0.203l0.198,0.198C42.913,25.764,42.687,26.148,42.528,26.33  z M45.704,23.041l-0.192,0.189c-0.381,0.379-0.85-0.017-1.002-0.165l-3.625-3.639c-0.47-0.471-0.875-0.18-1.016-0.049l-0.657,0.656  c-0.458,0.457-0.886-0.039-0.886-0.039l-0.174-0.176c0,0-0.382-0.38,0.076-0.837l3.369-3.354c0.203-0.183,0.612-0.456,0.963-0.104  l0.109,0.111c0.389,0.41,0.165,0.772,0.024,0.931l-0.678,0.674c-0.091,0.095-0.389,0.482,0.156,1.031l3.564,3.579  C45.932,22.071,46.213,22.542,45.704,23.041z"/>
</symbol>

<symbol id="ticket2" viewBox="0 0 512 512">
    <g id="XMLID_186_"><path d="M431.1,273.3c-0.5,0-1,0.1-1.3,0.4c-0.3,0.3-0.4,0.6-0.4,1c0,0.5,0.1,0.9,0.4,1.2c0.3,0.3,0.7,0.4,1.3,0.4   c0.6,0,1-0.1,1.3-0.4c0.3-0.3,0.5-0.7,0.5-1.2c0-0.4-0.2-0.8-0.5-1C432.2,273.5,431.7,273.3,431.1,273.3z" id="XMLID_326_"/><path d="M439.2,235.5c-0.5-0.3-1.2-0.5-2.2-0.5h-4.6c-1,0-1.7,0.2-2.2,0.5c-0.5,0.3-0.7,0.8-0.7,1.3   c0,0.6,0.3,1,0.7,1.3c0.5,0.3,1.2,0.5,2.2,0.5h4.6c1,0,1.7-0.2,2.2-0.5c0.5-0.3,0.7-0.8,0.7-1.4   C439.9,236.2,439.7,235.8,439.2,235.5z" id="XMLID_325_"/><path d="M439.2,298.9c-0.5-0.3-1.1-0.5-1.8-0.5c-0.8,0-1.4,0.2-1.8,0.5c-0.4,0.3-0.7,0.8-0.7,1.3   c0,0.5,0.1,1,0.2,1.3c0.1,0.4,0.3,0.7,0.6,0.9h0.7c1.1,0,2-0.2,2.6-0.6c0.6-0.4,0.9-0.9,0.9-1.6   C439.9,299.6,439.7,299.2,439.2,298.9z" id="XMLID_324_"/><path d="M439.2,248.2c-0.5-0.3-1.2-0.5-2.2-0.5h-4.6c-1,0-1.7,0.2-2.2,0.5c-0.5,0.3-0.7,0.8-0.7,1.3   c0,0.6,0.3,1,0.7,1.3c0.5,0.3,1.2,0.5,2.2,0.5h4.6c1,0,1.7-0.2,2.2-0.5c0.5-0.3,0.7-0.8,0.7-1.4   C439.9,248.9,439.7,248.5,439.2,248.2z" id="XMLID_323_"/><polygon id="XMLID_322_" points="431.5,312.6 432.3,313 436.4,315.8 436.4,312.5 431.5,312.5  "/><path d="M437.9,272.8c-0.6,0-1.1,0.2-1.5,0.6c-0.4,0.4-0.6,0.8-0.6,1.4c0,0.6,0.2,1.1,0.6,1.5   c0.4,0.4,0.9,0.6,1.5,0.6c0.6,0,1.1-0.2,1.5-0.6c0.4-0.4,0.6-0.9,0.6-1.6c0-0.6-0.2-1-0.5-1.4C439,273,438.5,272.8,437.9,272.8z" id="XMLID_321_"/><path d="M433.9,260.5h-1.7c-0.9,0-1.6,0.2-2,0.5c-0.5,0.3-0.7,0.8-0.7,1.3c0,0.6,0.3,1,0.8,1.3   c0.5,0.3,1.2,0.5,1.9,0.5c0.8,0,1.4-0.1,1.9-0.4c0.5-0.3,0.7-0.7,0.7-1.3c0-0.4-0.1-0.8-0.2-1.1   C434.4,260.9,434.2,260.7,433.9,260.5z" id="XMLID_320_"/><path d="M439.2,159.2c-0.5-0.3-1.2-0.5-2.2-0.5h-4.6c-1,0-1.7,0.2-2.2,0.5c-0.5,0.3-0.7,0.8-0.7,1.3   c0,0.6,0.3,1,0.7,1.3c0.5,0.3,1.2,0.5,2.2,0.5h4.6c1,0,1.7-0.2,2.2-0.5c0.5-0.3,0.7-0.8,0.7-1.4C439.9,160,439.7,159.5,439.2,159.2   z" id="XMLID_319_"/><path d="M196.9,309c-0.6,0-1.1,0.2-1.5,0.6c-0.4,0.4-0.6,0.9-0.6,1.5c0,0.6,0.2,1.1,0.6,1.5   c0.4,0.4,0.9,0.6,1.6,0.6c0.6,0,1-0.2,1.4-0.5c0.4-0.4,0.6-0.9,0.6-1.5c0-0.6-0.2-1.1-0.6-1.5C197.9,309.2,197.5,309,196.9,309z" id="XMLID_318_"/><polygon id="XMLID_317_" points="158.7,305.5 155.9,309.6 159.2,309.6 159.2,304.7 159.1,304.7  "/><path d="M171.5,308.2c-0.5,0-1,0.1-1.3,0.2c-0.4,0.1-0.7,0.3-0.9,0.6v0.7c0,1.1,0.2,2,0.6,2.6   c0.4,0.6,0.9,0.9,1.6,0.9c0.5,0,1-0.2,1.3-0.7c0.3-0.5,0.5-1.1,0.5-1.8c0-0.8-0.2-1.4-0.5-1.8C172.5,308.4,172.1,308.2,171.5,308.2   z" id="XMLID_316_"/><path d="M196.9,306.2c0.4,0,0.8-0.2,1-0.5c0.2-0.3,0.4-0.8,0.4-1.3c0-0.5-0.1-1-0.4-1.3c-0.3-0.3-0.6-0.4-1-0.4   c-0.5,0-0.9,0.1-1.2,0.4c-0.3,0.3-0.4,0.7-0.4,1.3c0,0.6,0.1,1,0.4,1.3C196.1,306.1,196.4,306.2,196.9,306.2z" id="XMLID_315_"/><path d="M222.1,302.7c-0.6,0-1,0.3-1.3,0.7c-0.3,0.5-0.5,1.2-0.5,2.2v4.6c0,1,0.2,1.7,0.5,2.2   c0.3,0.5,0.8,0.7,1.4,0.7c0.6,0,1-0.2,1.3-0.7c0.3-0.5,0.5-1.2,0.5-2.2v-4.6c0-1-0.2-1.7-0.5-2.2   C223.2,302.9,222.7,302.7,222.1,302.7z" id="XMLID_314_"/><path d="M234.8,302.7c-0.6,0-1,0.3-1.3,0.7c-0.3,0.5-0.5,1.2-0.5,2.2v4.6c0,1,0.2,1.7,0.5,2.2   c0.3,0.5,0.8,0.7,1.4,0.7c0.6,0,1-0.2,1.3-0.7c0.3-0.5,0.5-1.2,0.5-2.2v-4.6c0-1-0.2-1.7-0.5-2.2   C235.9,302.9,235.4,302.7,234.8,302.7z" id="XMLID_313_"/><path d="M209.4,302.7c-0.6,0-1,0.3-1.3,0.8c-0.3,0.5-0.5,1.2-0.5,1.9c0,0.8,0.1,1.4,0.4,1.9   c0.3,0.5,0.7,0.7,1.3,0.7c0.4,0,0.8-0.1,1.1-0.2c0.3-0.2,0.6-0.4,0.8-0.6v-1.7c0-0.9-0.2-1.6-0.5-2   C210.4,302.9,209.9,302.7,209.4,302.7z" id="XMLID_312_"/><path d="M311.1,302.7c-0.6,0-1,0.3-1.3,0.7c-0.3,0.5-0.5,1.2-0.5,2.2v4.6c0,1,0.2,1.7,0.5,2.2   c0.3,0.5,0.8,0.7,1.4,0.7c0.6,0,1-0.2,1.3-0.7c0.3-0.5,0.5-1.2,0.5-2.2v-4.6c0-1-0.2-1.7-0.5-2.2   C312.1,302.9,311.7,302.7,311.1,302.7z" id="XMLID_311_"/><path d="M479.4,133.7H32.6C17.9,133.7,6,145.6,6,160.3v191.5c0,14.7,11.9,26.6,26.6,26.6h375.7v-14.6h10.6v14.6   h60.5c14.7,0,26.6-11.9,26.6-26.6V160.3C506,145.6,494.1,133.7,479.4,133.7z M271.7,179.7h12.6V234h-12.6V179.7z M256.6,254.8v-5.4   h23v5.4h-8v25h-7.1v-25H256.6z M231,179.7l10.6,39.6l0.4,2h0.2l0.4-1.8l10.8-39.7h13.2L249,234h-13.6l-17.5-54.3H231z M252.3,261.3   v5.4h-10.7v7.6h12.8v5.4h-19.9v-30.4h19.9v5.4h-12.9v6.5H252.3z M169.2,202c0-6.7,2.1-12.2,6.4-16.5c4.3-4.4,9.8-6.5,16.7-6.5   c6.8,0,12.4,2.2,16.6,6.5c4.3,4.4,6.4,9.9,6.4,16.5v9.8c0,6.7-2.1,12.2-6.4,16.5c-4.2,4.3-9.8,6.5-16.6,6.5   c-6.9,0-12.5-2.2-16.7-6.5c-4.3-4.3-6.4-9.8-6.4-16.5V202z M167.7,249.3h7v30.4h-7V249.3z M141.5,254.8v-5.4h23v5.4h-8v25h-7.1v-25   H141.5z M103.7,179.7h16.5l12.2,38h0.2l12.3-38h16.7V234h-12.6v-35l-0.2,0l-12,35h-8.5l-11.7-34.5l-0.2,0V234h-12.6V179.7z    M113.7,358.2h-3.3v-38.6h3.3V358.2z M121.3,358.2h-5.6v-38.6h5.6V358.2z M123.1,315.7h-3.6v-12.5h-3.1v-2.8l6.8-0.6V315.7z    M126.2,358.2h-2.3v-38.6h2.3V358.2z M134.2,303.2c-0.3-0.4-0.7-0.5-1.3-0.5c-0.6,0-1,0.2-1.3,0.7c-0.3,0.5-0.5,1-0.5,1.8h-3.5   l0-0.1c0-1.4,0.4-2.7,1.4-3.7c1-1,2.3-1.5,3.9-1.5c1.7,0,3,0.4,4,1.3c0.9,0.8,1.4,2,1.4,3.5c0,1-0.3,1.9-0.8,2.6   c-0.5,0.8-1.5,1.9-2.8,3.4l-1.9,2.3l0,0.1h6v2.8h-10.8v-2.4l4.8-5.3c0.6-0.7,1.1-1.4,1.4-2c0.3-0.6,0.5-1.1,0.5-1.5   C134.6,304,134.4,303.5,134.2,303.2z M136.3,358.2h-7v-38.6h7V358.2z M140.1,358.2h-1.6v-38.6h1.6V358.2z M148.6,358.2H143v-38.6   h5.6V358.2z M151.6,358.2h-1.1v-38.6h1.1V358.2z M150,314.7c-1.1,0.8-2.5,1.2-4.2,1.2c-1.5,0-2.8-0.4-3.8-1.2   c-1.1-0.8-1.6-1.9-1.6-3.3l0-0.1h3.5c0,0.5,0.2,0.9,0.5,1.3c0.4,0.3,0.8,0.5,1.3,0.5c0.7,0,1.2-0.2,1.6-0.5   c0.4-0.4,0.6-0.8,0.6-1.3c0-0.8-0.2-1.3-0.6-1.7c-0.4-0.3-1-0.5-1.7-0.5H144v-2.7h1.7c0.7,0,1.2-0.2,1.5-0.5   c0.4-0.4,0.5-0.8,0.5-1.5c0-0.5-0.2-0.9-0.5-1.2c-0.4-0.3-0.8-0.5-1.4-0.5c-0.5,0-0.8,0.1-1.2,0.4c-0.3,0.3-0.5,0.6-0.5,1.1h-3.5   l0-0.1c0-1.2,0.4-2.2,1.5-3c1-0.8,2.3-1.2,3.7-1.2c1.7,0,3,0.4,4.1,1.2c1,0.8,1.5,1.9,1.5,3.3c0,0.7-0.2,1.4-0.6,1.9   c-0.4,0.6-1,1.1-1.7,1.4c0.8,0.3,1.5,0.8,2,1.4c0.5,0.6,0.7,1.4,0.7,2.3C151.6,312.8,151.1,313.9,150,314.7z M159.1,358.2h-6v-38.6   h6V358.2z M161.7,358.2h-0.8v-38.6h0.8V358.2z M162.8,315.7h-3.6v-3.3H153l-0.2-2.2l6.4-10.1v0h3.6v9.5h1.6v2.8h-1.6V315.7z    M166.9,358.2h-3.3v-38.6h3.3V358.2z M174.5,358.2h-5.6v-38.6h5.6V358.2z M175.4,314.4c-1,1-2.3,1.5-3.9,1.5   c-1.7,0-3.1-0.6-4.2-1.7c-1.1-1.1-1.6-2.7-1.6-4.6v-3.1c0-2.1,0.6-3.7,1.8-4.9c1.2-1.2,2.8-1.8,4.7-1.8c0.6,0,1.1,0.1,1.6,0.2   c0.5,0.1,1,0.3,1.6,0.5l-0.6,2.6c-0.5-0.1-0.9-0.3-1.3-0.3c-0.4-0.1-0.8-0.1-1.3-0.1c-0.9,0-1.6,0.3-2.1,0.9   c-0.5,0.6-0.8,1.6-0.8,2.8v0.1c0.4-0.4,0.9-0.7,1.5-0.9c0.6-0.2,1.2-0.3,1.9-0.3c1.3,0,2.4,0.5,3.1,1.5c0.7,1,1.1,2.2,1.1,3.8   C176.9,312.2,176.4,313.4,175.4,314.4z M179.3,358.2h-2.3v-38.6h2.3V358.2z M189.5,358.2h-7v-38.6h7V358.2z M189.6,302.9   c-1.7,1.9-2.8,3.6-3.4,5.2c-0.6,1.6-0.9,3.4-0.9,5.6v2h-3.6v-2c0-2.1,0.4-4,1.1-5.7c0.8-1.7,1.9-3.4,3.3-5h-7.8v-2.8h11.3V302.9z    M193.3,358.2h-1.6v-38.6h1.6V358.2z M201.8,358.2h-5.6v-38.6h5.6V358.2z M200.9,314.7c-1,0.8-2.4,1.2-4,1.2   c-1.7,0-3.1-0.4-4.2-1.2c-1.1-0.8-1.6-1.9-1.6-3.4c0-0.8,0.3-1.6,0.8-2.2c0.5-0.6,1.2-1.1,2.1-1.5c-0.7-0.3-1.3-0.8-1.7-1.4   c-0.4-0.6-0.6-1.3-0.6-2c0-1.4,0.5-2.4,1.4-3.2c1-0.7,2.2-1.1,3.8-1.1c1.5,0,2.7,0.4,3.6,1.1s1.4,1.8,1.4,3.2c0,0.8-0.2,1.4-0.6,2   c-0.4,0.6-0.9,1.1-1.6,1.4c0.8,0.4,1.5,0.9,2,1.5c0.5,0.6,0.7,1.4,0.7,2.2C202.5,312.8,202,313.9,200.9,314.7z M203.4,259.5h-6.9   c0-1.9-0.4-3.2-1.2-4c-0.8-0.8-2.1-1.2-3.9-1.2c-1.6,0-2.8,0.6-3.7,1.9c-0.8,1.3-1.3,3-1.3,5.1v6.4c0,2.1,0.5,3.8,1.4,5.1   c0.9,1.3,2.3,1.9,4,1.9c1.6,0,2.8-0.4,3.5-1.2c0.7-0.8,1.1-2.2,1.1-4.1h6.9l0,0.1c0.1,3.5-0.9,6.1-2.9,7.9c-2,1.8-4.9,2.7-8.5,2.7   c-3.8,0-6.8-1.1-9-3.4c-2.3-2.3-3.4-5.3-3.4-9v-6.3c0-3.7,1.1-6.7,3.3-9c2.2-2.3,5.1-3.5,8.7-3.5c3.9,0,6.8,0.9,8.9,2.7   c2.1,1.8,3.1,4.4,3.1,7.8L203.4,259.5z M204.7,358.2h-1.1v-38.6h1.1V358.2z M212.3,358.2h-6v-38.6h6V358.2z M209,315.9   c-0.5,0-1.1-0.1-1.7-0.2c-0.6-0.1-1.1-0.3-1.6-0.5l0.6-2.6c0.5,0.2,0.9,0.3,1.3,0.4c0.4,0.1,0.9,0.1,1.4,0.1c0.7,0,1.2-0.3,1.6-0.8   c0.4-0.5,0.6-1.2,0.6-2.1v-0.9c-0.4,0.4-0.8,0.8-1.2,1c-0.5,0.2-1,0.3-1.5,0.3c-1.4,0-2.5-0.5-3.3-1.4c-0.8-1-1.2-2.2-1.2-3.8   c0-1.5,0.5-2.8,1.5-3.9c1-1.1,2.3-1.6,3.9-1.6c1.6,0,2.9,0.5,3.9,1.6c1,1.1,1.5,2.6,1.5,4.5v3.9c0,1.8-0.6,3.2-1.7,4.3   C212,315.4,210.6,315.9,209,315.9z M214.9,358.2h-0.8v-38.6h0.8V358.2z M214.4,267.5v12.2h-7.1v-30.4h7.1v11.9h1.5l6.9-11.9h8.9   l-9.6,13.8l10.4,16.6h-9.1l-7-12.2H214.4z M219.8,358.2h-3.3v-38.6h3.3V358.2z M227.4,358.2h-5.6v-38.6h5.6V358.2z M227.6,310   c0,1.9-0.5,3.3-1.5,4.4c-1,1.1-2.3,1.6-3.9,1.6c-1.6,0-3-0.5-4-1.6c-1-1.1-1.5-2.5-1.5-4.4v-4.1c0-1.9,0.5-3.3,1.5-4.4   c1-1.1,2.3-1.6,3.9-1.6c1.6,0,2.9,0.5,3.9,1.6s1.5,2.5,1.5,4.4V310z M232.2,358.2h-2.3v-38.6h2.3V358.2z M230.9,314.3   c-1-1.1-1.5-2.5-1.5-4.4v-4.1c0-1.9,0.5-3.3,1.5-4.4c1-1.1,2.3-1.6,3.9-1.6c1.6,0,2.9,0.5,3.9,1.6c1,1.1,1.5,2.5,1.5,4.4v4.1   c0,1.9-0.5,3.3-1.5,4.4c-1,1.1-2.3,1.6-3.9,1.6C233.2,315.9,231.9,315.4,230.9,314.3z M242.4,358.2h-7v-38.6h7V358.2z M246.2,358.2   h-1.6v-38.6h1.6V358.2z M243.4,303.2v-2.8l6.8-0.6v15.8h-3.6v-12.5H243.4z M254.7,358.2h-5.6v-38.6h5.6V358.2z M257.6,358.2h-1.1   v-38.6h1.1V358.2z M265.2,358.2h-6v-38.6h6V358.2z M265.9,315.7H255v-2.4l4.8-5.3c0.6-0.7,1.1-1.4,1.4-2c0.3-0.6,0.5-1.1,0.5-1.5   c0-0.6-0.1-1.1-0.4-1.4c-0.3-0.4-0.7-0.5-1.3-0.5c-0.6,0-1,0.2-1.3,0.7c-0.3,0.5-0.5,1-0.5,1.8h-3.5l0-0.1c0-1.4,0.4-2.7,1.4-3.7   c1-1,2.3-1.5,3.9-1.5c1.7,0,3,0.4,4,1.3c0.9,0.8,1.4,2,1.4,3.5c0,1-0.3,1.9-0.8,2.6c-0.5,0.8-1.5,1.9-2.8,3.4l-1.9,2.3l0,0.1h6   V315.7z M267.8,358.2H267v-38.6h0.8V358.2z M267.5,311.4L267.5,311.4l3.5-0.1c0,0.5,0.2,0.9,0.5,1.3c0.4,0.3,0.8,0.5,1.3,0.5   c0.7,0,1.2-0.2,1.6-0.5c0.4-0.4,0.6-0.8,0.6-1.3c0-0.8-0.2-1.3-0.6-1.7c-0.4-0.3-1-0.5-1.7-0.5h-1.7v-2.7h1.7   c0.7,0,1.2-0.2,1.5-0.5c0.4-0.4,0.5-0.8,0.5-1.5c0-0.5-0.2-0.9-0.5-1.2c-0.4-0.3-0.8-0.5-1.4-0.5c-0.5,0-0.8,0.1-1.2,0.4   c-0.3,0.3-0.5,0.6-0.5,1.1h-3.5l0-0.1c0-1.2,0.4-2.2,1.5-3c1-0.8,2.3-1.2,3.7-1.2c1.7,0,3,0.4,4.1,1.2c1,0.8,1.5,1.9,1.5,3.3   c0,0.7-0.2,1.4-0.6,1.9c-0.4,0.6-1,1.1-1.7,1.4c0.8,0.3,1.5,0.8,2,1.4c0.5,0.6,0.7,1.4,0.7,2.3c0,1.4-0.5,2.6-1.6,3.4   c-1.1,0.8-2.5,1.2-4.2,1.2c-1.5,0-2.8-0.4-3.8-1.2C267.9,314,267.4,312.9,267.5,311.4z M272.9,358.2h-3.3v-38.6h3.3V358.2z    M280.6,358.2H275v-38.6h5.6V358.2z M285.4,358.2h-2.3v-38.6h2.3V358.2z M286.9,313.7v2h-3.6v-2c0-2.1,0.4-4,1.1-5.7   c0.8-1.7,1.9-3.4,3.3-5H280v-2.8h11.3v2.8c-1.7,1.9-2.8,3.6-3.4,5.2C287.2,309.7,286.9,311.5,286.9,313.7z M295.6,358.2h-7v-38.6h7   V358.2z M299.4,358.2h-1.6v-38.6h1.6V358.2z M299.6,313.7v2H296v-2c0-2.1,0.4-4,1.1-5.7c0.8-1.7,1.9-3.4,3.3-5h-7.8v-2.8H304v2.8   c-1.7,1.9-2.8,3.6-3.4,5.2C299.9,309.7,299.6,311.5,299.6,313.7z M307.9,358.2h-5.6v-38.6h5.6V358.2z M310.8,358.2h-1.1v-38.6h1.1   V358.2z M307.2,314.3c-1-1.1-1.5-2.5-1.5-4.4v-4.1c0-1.9,0.5-3.3,1.5-4.4c1-1.1,2.3-1.6,3.9-1.6c1.6,0,2.9,0.5,3.9,1.6   c1,1.1,1.5,2.5,1.5,4.4v4.1c0,1.9-0.5,3.3-1.5,4.4c-1,1.1-2.3,1.6-3.9,1.6C309.5,315.9,308.2,315.4,307.2,314.3z M318.4,358.2h-6   v-38.6h6V358.2z M320.9,358.2h-0.8v-38.6h0.8V358.2z M329.3,189.4h-23v11.7h19.1v9.7h-19.1v13.5h22.9v9.7h-35.5v-54.3h35.6V189.4z    M430.1,213c0.5,0.3,1,0.5,1.8,0.5v3.5l-0.1,0c-1.4,0-2.7-0.4-3.7-1.4c-1-1-1.5-2.3-1.5-3.9c0-1.7,0.4-3,1.3-4   c0.8-0.9,2-1.4,3.5-1.4c1,0,1.9,0.3,2.6,0.8c0.8,0.5,1.9,1.5,3.4,2.8l2.3,1.9l0.1,0v-6h2.8v10.8h-2.4l-5.3-4.8   c-0.7-0.6-1.4-1.1-2-1.4c-0.6-0.3-1.1-0.5-1.5-0.5c-0.6,0-1.1,0.1-1.4,0.4c-0.4,0.3-0.5,0.7-0.5,1.3   C429.4,212.3,429.7,212.7,430.1,213z M442.5,221.5v3.6H430v3.1h-2.8l-0.6-6.8H442.5z M418.9,346.8h-10.6v-21.3h10.6V346.8z    M418.9,308.5h-10.6v-21.3h10.6V308.5z M418.9,270.3h-10.6V249h10.6V270.3z M418.9,232.1h-10.6v-21.3h10.6V232.1z M418.9,193.8   h-10.6v-21.3h10.6V193.8z M418.9,155.6h-10.6v-21.3h10.6V155.6z M442.5,352.2H430v3.1h-2.8l-0.6-6.8h15.8V352.2z M442.5,343.8h-2.4   l-5.3-4.8c-0.7-0.6-1.4-1.1-2-1.4c-0.6-0.3-1.1-0.5-1.5-0.5c-0.6,0-1.1,0.1-1.4,0.4c-0.4,0.3-0.5,0.7-0.5,1.3c0,0.6,0.2,1,0.7,1.3   c0.5,0.3,1,0.5,1.8,0.5v3.5l-0.1,0c-1.4,0-2.7-0.4-3.7-1.4c-1-1-1.5-2.3-1.5-3.9c0-1.7,0.4-3,1.3-4c0.8-0.9,2-1.4,3.5-1.4   c1,0,1.9,0.3,2.6,0.8c0.8,0.5,1.9,1.5,3.4,2.8l2.3,1.9l0.1,0v-6h2.8V343.8z M441.5,329.7c-0.8,1.1-1.9,1.6-3.3,1.6l-0.1,0v-3.5   c0.5,0,0.9-0.2,1.3-0.5c0.3-0.3,0.5-0.8,0.5-1.3c0-0.7-0.2-1.2-0.5-1.6c-0.4-0.4-0.8-0.6-1.3-0.6c-0.8,0-1.3,0.2-1.7,0.6   c-0.3,0.4-0.5,1-0.5,1.7v1.7h-2.7v-1.7c0-0.7-0.2-1.2-0.5-1.5c-0.3-0.4-0.8-0.5-1.5-0.5c-0.5,0-0.9,0.2-1.2,0.5   c-0.3,0.4-0.5,0.8-0.5,1.4c0,0.5,0.1,0.8,0.4,1.2c0.3,0.3,0.6,0.5,1.1,0.5v3.5l-0.1,0c-1.2,0-2.2-0.4-3-1.5c-0.8-1-1.2-2.3-1.2-3.7   c0-1.7,0.4-3,1.2-4.1c0.8-1,1.9-1.5,3.3-1.5c0.7,0,1.4,0.2,1.9,0.6c0.6,0.4,1.1,1,1.4,1.7c0.3-0.8,0.8-1.5,1.4-2   c0.6-0.5,1.4-0.7,2.3-0.7c1.4,0,2.6,0.5,3.4,1.6c0.8,1.1,1.2,2.5,1.2,4.2C442.7,327.4,442.3,328.6,441.5,329.7z M442.5,308.9v3.6   h-3.3v6.2l-2.2,0.2l-10.1-6.4h0v-3.6h9.5v-1.6h2.8v1.6H442.5z M441,304.3c-1.1,1.1-2.7,1.6-4.6,1.6h-3.1c-2.1,0-3.7-0.6-4.9-1.8   c-1.2-1.2-1.8-2.8-1.8-4.7c0-0.6,0.1-1.1,0.2-1.6c0.1-0.5,0.3-1,0.5-1.6l2.6,0.6c-0.1,0.5-0.3,0.9-0.3,1.3   c-0.1,0.4-0.1,0.8-0.1,1.3c0,0.9,0.3,1.6,0.9,2.1c0.6,0.5,1.6,0.8,2.8,0.8h0.1c-0.4-0.4-0.7-0.9-0.9-1.5c-0.2-0.6-0.3-1.2-0.3-1.9   c0-1.3,0.5-2.4,1.5-3.1s2.2-1.1,3.8-1.1c1.5,0,2.8,0.5,3.8,1.5c1,1,1.5,2.3,1.5,3.9C442.7,301.9,442.1,303.3,441,304.3z    M426.9,293.4v-11.3h2.8c1.9,1.7,3.6,2.8,5.2,3.4c1.6,0.6,3.4,0.9,5.6,0.9h2v3.6h-2c-2.1,0-4-0.4-5.7-1.1c-1.7-0.8-3.4-1.9-5-3.3   v7.8H426.9z M441.5,278.9c-0.8,1.1-1.9,1.6-3.4,1.6c-0.8,0-1.6-0.3-2.2-0.8c-0.6-0.5-1.1-1.2-1.5-2.1c-0.3,0.7-0.8,1.3-1.4,1.7   c-0.6,0.4-1.3,0.6-2,0.6c-1.4,0-2.4-0.5-3.2-1.4c-0.7-1-1.1-2.2-1.1-3.8c0-1.5,0.4-2.7,1.1-3.6c0.7-0.9,1.8-1.4,3.2-1.4   c0.8,0,1.4,0.2,2,0.6c0.6,0.4,1.1,0.9,1.4,1.6c0.4-0.8,0.9-1.5,1.5-2c0.6-0.5,1.4-0.7,2.2-0.7c1.5,0,2.6,0.5,3.4,1.6   c0.8,1,1.2,2.4,1.2,4C442.7,276.4,442.3,277.8,441.5,278.9z M442.5,264.4c-0.1,0.6-0.3,1.1-0.5,1.6l-2.6-0.6   c0.2-0.5,0.3-0.9,0.4-1.3c0.1-0.4,0.1-0.9,0.1-1.4c0-0.7-0.3-1.2-0.8-1.6c-0.5-0.4-1.2-0.6-2.1-0.6h-0.9c0.4,0.4,0.8,0.8,1,1.2   c0.2,0.5,0.3,1,0.3,1.5c0,1.4-0.5,2.5-1.4,3.3c-1,0.8-2.2,1.2-3.8,1.2c-1.5,0-2.8-0.5-3.9-1.5c-1.1-1-1.6-2.3-1.6-3.9   c0-1.6,0.5-2.9,1.6-3.9c1.1-1,2.6-1.5,4.5-1.5h3.9c1.8,0,3.2,0.6,4.3,1.7c1.1,1.1,1.6,2.5,1.6,4.2   C442.7,263.2,442.6,263.8,442.5,264.4z M441.1,253.5c-1.1,1-2.5,1.5-4.4,1.5h-4.1c-1.9,0-3.3-0.5-4.4-1.5c-1.1-1-1.6-2.3-1.6-3.9   c0-1.6,0.5-2.9,1.6-3.9c1.1-1,2.5-1.5,4.4-1.5h4.1c1.9,0,3.3,0.5,4.4,1.5c1.1,1,1.6,2.3,1.6,3.9   C442.7,251.1,442.2,252.5,441.1,253.5z M441.1,240.7c-1.1,1-2.5,1.5-4.4,1.5h-4.1c-1.9,0-3.3-0.5-4.4-1.5c-1.1-1-1.6-2.3-1.6-3.9   c0-1.6,0.5-2.9,1.6-3.9c1.1-1,2.5-1.5,4.4-1.5h4.1c1.9,0,3.3,0.5,4.4,1.5c1.1,1,1.6,2.3,1.6,3.9   C442.7,238.4,442.2,239.8,441.1,240.7z M441.5,202.6c-0.8,1.1-1.9,1.6-3.3,1.6l-0.1,0v-3.5c0.5,0,0.9-0.2,1.3-0.5   c0.3-0.3,0.5-0.8,0.5-1.3c0-0.7-0.2-1.2-0.5-1.6c-0.4-0.4-0.8-0.6-1.3-0.6c-0.8,0-1.3,0.2-1.7,0.6c-0.3,0.4-0.5,1-0.5,1.7v1.7h-2.7   v-1.7c0-0.7-0.2-1.2-0.5-1.5c-0.3-0.3-0.8-0.5-1.5-0.5c-0.5,0-0.9,0.2-1.2,0.5c-0.3,0.4-0.5,0.8-0.5,1.4c0,0.5,0.1,0.8,0.4,1.2   c0.3,0.3,0.6,0.5,1.1,0.5v3.5l-0.1,0c-1.2,0-2.2-0.4-3-1.5c-0.8-1-1.2-2.3-1.2-3.7c0-1.7,0.4-3,1.2-4.1c0.8-1,1.9-1.5,3.3-1.5   c0.7,0,1.4,0.2,1.9,0.6c0.6,0.4,1.1,1,1.4,1.7c0.3-0.8,0.8-1.5,1.4-2c0.6-0.5,1.4-0.7,2.3-0.7c1.4,0,2.6,0.5,3.4,1.6   c0.8,1.1,1.2,2.5,1.2,4.2C442.7,200.3,442.3,201.5,441.5,202.6z M429.7,180.4c1.9,1.7,3.6,2.8,5.2,3.4c1.6,0.6,3.4,0.9,5.6,0.9h2   v3.6h-2c-2.1,0-4-0.4-5.7-1.1c-1.7-0.8-3.4-1.9-5-3.3v7.8h-2.8v-11.3H429.7z M426.9,179v-11.3h2.8c1.9,1.7,3.6,2.8,5.2,3.4   c1.6,0.6,3.4,0.9,5.6,0.9h2v3.6h-2c-2.1,0-4-0.4-5.7-1.1c-1.7-0.8-3.4-1.9-5-3.3v7.8H426.9z M441.1,164.5c-1.1,1-2.5,1.5-4.4,1.5   h-4.1c-1.9,0-3.3-0.5-4.4-1.5c-1.1-1-1.6-2.3-1.6-3.9c0-1.6,0.5-2.9,1.6-3.9s2.5-1.5,4.4-1.5h4.1c1.9,0,3.3,0.5,4.4,1.5   c1.1,1,1.6,2.3,1.6,3.9C442.7,162.2,442.2,163.5,441.1,164.5z M498.3,361.3h-51.9V358h51.9V361.3z M498.3,355.9h-51.9v-5.6h51.9   V355.9z M498.3,347.8h-51.9v-2.3h51.9V347.8z M498.3,342.3h-51.9v-7h51.9V342.3z M498.3,333.1h-51.9v-1.6h51.9V333.1z M498.3,328.6   h-51.9V323h51.9V328.6z M498.3,321.2h-51.9v-1.1h51.9V321.2z M498.3,318.5h-51.9v-6h51.9V318.5z M498.3,310.8h-51.9V310h51.9V310.8   z M498.3,308.1h-51.9v-3.3h51.9V308.1z M498.3,302.7h-51.9v-5.6h51.9V302.7z M498.3,294.6h-51.9v-2.3h51.9V294.6z M498.3,289.1   h-51.9v-7h51.9V289.1z M498.3,279.9h-51.9v-1.6h51.9V279.9z M498.3,275.4h-51.9v-5.6h51.9V275.4z M498.3,268h-51.9v-1.1h51.9V268z    M498.3,265.3h-51.9v-6h51.9V265.3z M498.3,257.6h-51.9v-0.8h51.9V257.6z M498.3,255.2h-51.9v-3.3h51.9V255.2z M498.3,249.9h-51.9   v-5.6h51.9V249.9z M498.3,241.7h-51.9v-2.3h51.9V241.7z M498.3,236.3h-51.9v-7h51.9V236.3z M498.3,227.1h-51.9v-1.6h51.9V227.1z    M498.3,222.6h-51.9V217h51.9V222.6z M498.3,215.2h-51.9v-1.1h51.9V215.2z M498.3,212.5h-51.9v-6h51.9V212.5z M498.3,204.7h-51.9   v-0.8h51.9V204.7z M498.3,202h-51.9v-3.3h51.9V202z M498.3,196.7h-51.9v-5.6h51.9V196.7z M498.3,188.5h-51.9v-2.3h51.9V188.5z    M498.3,183.1h-51.9v-7h51.9V183.1z M498.3,173.9h-51.9v-1.6h51.9V173.9z M498.3,169.4h-51.9v-5.6h51.9V169.4z M498.3,162h-51.9   v-1.1h51.9V162z M498.3,159.3h-51.9v-6h51.9V159.3z M498.3,151.5h-51.9v-0.8h51.9V151.5z" id="XMLID_188_"/><path d="M192.3,225.1c3.3,0,5.9-1.2,7.7-3.7c1.8-2.5,2.7-5.7,2.7-9.6v-9.8c0-3.9-0.9-7.1-2.7-9.5   c-1.8-2.5-4.4-3.7-7.7-3.7c-3.4,0-6,1.2-7.8,3.7c-1.8,2.5-2.7,5.7-2.7,9.6v9.8c0,3.9,0.9,7.1,2.7,9.6   C186.3,223.8,188.9,225.1,192.3,225.1z" id="XMLID_187_"/></g>
</symbol>
<symbol id="corn" viewBox="0 0 29.865 29.865">
    <g>
        <path d="M24.038,10.146c-0.378,0.192-0.8,0.312-1.253,0.312c-0.261,0-0.52-0.038-0.769-0.11
            c-0.578,0.735-1.466,1.184-2.447,1.184c-0.366,0-0.714-0.075-1.04-0.191c-0.021,0.037-0.029,0.078-0.053,0.114
            c-0.496,0.792-1.288,1.305-2.184,1.476l-0.803,13.95l-1.111,0.003l-0.846-14.688c-0.497-0.425-0.848-0.969-1.021-1.579
            c-0.567,0.565-1.349,0.916-2.212,0.916c-0.981,0-1.87-0.449-2.448-1.184c-0.249,0.072-0.506,0.11-0.768,0.11
            c-0.453,0-0.875-0.119-1.253-0.313c-0.491,0.612-0.731,1.393-0.644,2.176l1.672,14.912c0.168,1.5,1.434,2.631,2.942,2.631h10.262
            c1.51,0,2.773-1.131,2.942-2.631l1.672-14.911C24.771,11.539,24.529,10.759,24.038,10.146z M9.845,26.898L8.134,12.031
            l2.387-0.007l0.857,14.87L9.845,26.898z M20.032,26.863l-1.535,0.006l0.856-14.875l2.348-0.007L20.032,26.863z"/>
        <path d="M11.73,4.636c0.216-0.119,0.447-0.209,0.688-0.27c-0.027-0.155-0.048-0.313-0.048-0.475c0-1.04,0.574-1.944,1.421-2.422
            c-0.319-0.625-0.961-1.057-1.71-1.057c-1.064,0-1.927,0.863-1.927,1.927c0,0.062,0.013,0.121,0.019,0.182
            c-0.006,0-0.012-0.001-0.019-0.001c-0.354,0-0.682,0.106-0.959,0.284C10.349,2.874,11.322,3.608,11.73,4.636z"/>
        <path d="M13.424,4.306c0.135,0.013,0.271,0.016,0.402,0.047c0.573-0.591,1.361-0.931,2.208-0.931c0.577,0,1.141,0.162,1.63,0.469
            c0.225,0.14,0.417,0.313,0.596,0.5c0.317-0.623,0.843-1.121,1.494-1.387c-0.245-0.21-0.537-0.37-0.861-0.452
            c0.067-0.197,0.113-0.405,0.113-0.625C19.007,0.863,18.144,0,17.079,0c-1.063,0-1.926,0.863-1.926,1.927
            c0,0.062,0.013,0.121,0.018,0.182c-0.005,0-0.011-0.001-0.018-0.001c-0.984,0-1.783,0.798-1.783,1.783
            C13.372,4.034,13.393,4.172,13.424,4.306z"/>
        <path d="M18.948,5.551c0.027,0.087,0.065,0.17,0.087,0.261c0.187,0.802,0.047,1.628-0.391,2.328
            c-0.012,0.019-0.022,0.037-0.035,0.055c0.353,0.684,0.433,1.466,0.271,2.213c0.218,0.075,0.447,0.124,0.69,0.124
            c0.967,0,1.772-0.646,2.035-1.528c0.314,0.279,0.726,0.455,1.18,0.455c0.983,0,1.783-0.798,1.783-1.783
            c0-0.985-0.8-1.783-1.783-1.783c-0.006,0-0.013,0.001-0.02,0.001c0.006-0.061,0.02-0.12,0.02-0.182
            c0-1.064-0.862-1.927-1.928-1.927C19.85,3.784,19.031,4.563,18.948,5.551z"/>
        <path d="M7.087,9.458c0.455,0,0.864-0.175,1.179-0.455c0.263,0.882,1.069,1.528,2.036,1.528c0.626,0,1.183-0.274,1.573-0.703
            c-0.096-0.046-0.192-0.091-0.283-0.148c-1.368-0.855-1.786-2.665-0.931-4.032c0.069-0.111,0.162-0.199,0.243-0.297
            c-0.169-0.892-0.95-1.567-1.891-1.567c-1.064,0-1.927,0.863-1.927,1.927c0,0.062,0.013,0.121,0.019,0.182
            c-0.006,0-0.012-0.001-0.019-0.001c-0.984,0-1.783,0.798-1.783,1.783C5.304,8.659,6.104,9.458,7.087,9.458z"/>
        <path d="M17.137,4.739c-0.344-0.214-0.726-0.317-1.102-0.317c-0.693,0-1.372,0.347-1.767,0.979
            c-0.036,0.057-0.058,0.118-0.087,0.177c-0.006-0.004-0.01-0.008-0.016-0.012c-0.317-0.198-0.67-0.293-1.02-0.293
            c-0.642,0-1.27,0.32-1.635,0.905c-0.563,0.902-0.289,2.091,0.613,2.655c0.314,0.196,0.662,0.286,1.007,0.286
            c0.112,0,0.224-0.009,0.333-0.028c-0.264,0.958,0.105,2.012,0.99,2.566c0.38,0.238,0.802,0.351,1.22,0.351
            c0.769,0,1.52-0.384,1.956-1.084c0.57-0.913,0.417-2.065-0.293-2.81c0.176-0.142,0.335-0.306,0.462-0.507
            C18.408,6.633,18.111,5.348,17.137,4.739z"/>
    </g>
</symbol>
<symbol id="cola" viewBox="0 0 478.944 478.944">
    <g>
        <path d="M391.472,86.944h-144v-43.36l52-29.696l-8-13.888l-56,32c-2.48,1.432-4.006,4.08-4,6.944v48h-144c-4.418,0-8,3.582-8,8v40
            c0,4.418,3.582,8,8,8h16.888l15.2,128.936c0.211,1.786,1.017,3.449,2.288,4.72l13.936,13.936l15.688,181.104
            c0.362,4.144,3.84,7.32,8,7.304h160c4.16,0.016,7.638-3.16,8-7.304l15.752-181.104L357.16,276.6
            c1.271-1.271,2.077-2.934,2.288-4.72l15.136-128.936h16.888c4.418,0,8-3.582,8-8v-40C399.472,90.526,395.89,86.944,391.472,86.944
            z M210.528,462.944h-43.72l-15.336-176.696c-0.159-1.875-0.978-3.633-2.312-4.96l-14.032-14.04l-14.656-124.304h114.44
            l-21.6,46.232c-19.363,41.41-16.853,89.739,6.696,128.92c21.483,35.586,23.187,79.711,4.512,116.848L210.528,462.944z
                M228.416,462.944l10.4-20.8c21.146-42.029,19.228-91.973-5.08-132.256c-20.806-34.62-23.026-77.322-5.92-113.912l24.752-53.032
            h59.112l-36.272,49.464c-27.656,37.602-29.988,88.147-5.912,128.136c19.746,33.122,18.757,74.632-2.544,106.776l-23.76,35.624
            H228.416z M343.848,267.248l-14.032,14.04c-1.334,1.327-2.153,3.085-2.312,4.96l-15.368,176.696h-49.712l17.84-26.768
            c24.714-37.293,25.862-85.452,2.952-123.88c-20.738-34.456-18.728-78.001,5.096-110.4l43.216-58.952h26.944L343.848,267.248z
                M383.472,126.944h-288v-24h288V126.944z"/>
    </g>
</symbol>
<symbol id="3d"  viewBox="0 -16 384 384">
<path d="m383.742188 205.441406c-.085938-.5625-.222657-1.097656-.367188-1.632812-.078125-.289063-.09375-.585938-.191406-.863282l-64-192c-2.183594-6.539062-8.296875-10.945312-15.183594-10.945312h-40c-8.832031 0-16 7.167969-16 16s7.167969 16 16 16h28.472656l53.335938 160h-307.601563l53.335938-160h28.457031c8.832031 0 16-7.167969 16-16s-7.167969-16-16-16h-40c-6.886719 0-13 4.40625-15.175781 10.945312l-64 192c-.097657.285157-.121094.574219-.191407.863282-.152343.535156-.28125 1.070312-.375 1.632812-.089843.558594-.136718 1.117188-.1679682 1.679688-.0195313.304687-.0898438.582031-.0898438.878906v128c0 8.832031 7.167969 16 16 16h128c4.238281 0 8.3125-1.679688 11.3125-4.6875l36.6875-36.6875 36.6875 36.6875c3 3 7.074219 4.6875 11.3125 4.6875h128c8.832031 0 16-7.167969 16-16v-128c0-.296875-.070312-.574219-.089844-.871094-.03125-.570312-.078125-1.121094-.167968-1.6875zm-31.742188 114.558594h-105.367188l-43.320312-43.3125c-6.25-6.246094-16.375-6.246094-22.625 0l-43.320312 43.3125h-105.367188v-96h320zm0 0"/><path d="m64 304h56c8.832031 0 16-7.167969 16-16v-32c0-8.832031-7.167969-16-16-16h-56c-8.832031 0-16 7.167969-16 16v32c0 8.832031 7.167969 16 16 16zm0 0"/><path d="m264 304h56c8.832031 0 16-7.167969 16-16v-32c0-8.832031-7.167969-16-16-16h-56c-8.832031 0-16 7.167969-16 16v32c0 8.832031 7.167969 16 16 16zm0 0"/>
</symbol>
</svg>
